<svg xmlns="http://www.w3.org/2000/svg" xmlns:svg="http://www.w3.org/2000/svg" id="svg5125" width="235.192" height="235.192" version="1.1" viewBox="0 0 62.228 62.228"><g id="layer1" transform="translate(-29.373413,-111.60912)"><path id="path3811" style="fill:#000;fill-opacity:1;stroke:none;stroke-width:5.23083;stroke-linecap:round;stroke-linejoin:round;stroke-miterlimit:4;stroke-dasharray:none;stroke-opacity:1;paint-order:markers stroke fill" d="m 59.434186,113.30847 a 29.762751,29.762751 0 0 0 -14.233875,3.64581 24.884542,24.226615 0 0 1 7.144983,-1.02718 24.884542,24.226615 0 0 1 24.884111,24.22658 24.884542,24.226615 0 0 1 -24.884111,24.22726 24.884542,24.226615 0 0 1 -20.79296,-10.93947 29.762751,29.762751 0 0 0 27.881852,19.39275 29.762751,29.762751 0 0 0 29.762545,-29.76321 29.762751,29.762751 0 0 0 -29.762545,-29.76254 z"/></g></svg>