<svg xmlns="http://www.w3.org/2000/svg" xmlns:svg="http://www.w3.org/2000/svg" id="svg9023" width="236.712" height="236.712" version="1.1" viewBox="0 0 62.63 62.63"><g id="layer1" transform="translate(-75.546089,-129.8161)"><path id="path936-2" style="stroke-width:.893163;stroke-linecap:round;stroke-linejoin:round;paint-order:markers stroke fill" d="M 118.64258 78.96875 A 40.125506 40.125506 0 0 0 78.517578 119.09375 A 40.125506 40.125506 0 0 0 80.337891 130.81641 L 153.37891 99.007812 A 40.125506 40.125506 0 0 0 118.64258 78.96875 z" transform="matrix(0.26458333,0,0,0.26458333,75.546089,129.8161)"/><path id="rect8031-9" style="fill:#000;fill-opacity:1;stroke:none;stroke-width:5.36721;stroke-linecap:round;stroke-linejoin:round;stroke-miterlimit:4;stroke-dasharray:none;stroke-opacity:1;paint-order:markers stroke fill" d="m 133.84074,148.31878 -9.60962,4.19947 a 24.226615,24.884542 89.927756 0 1 0.89687,6.36385 24.226615,24.884542 89.927756 0 1 -24.85372,24.25881 24.226615,24.884542 89.927756 0 1 -20.806298,-10.91315 29.762751,29.762751 0 0 0 27.905948,19.35743 29.762751,29.762751 0 0 0 29.72496,-29.80052 29.762751,29.762751 0 0 0 -3.25814,-13.46589 z"/><path style="fill:none;stroke:#000;stroke-width:.258714px;stroke-linecap:butt;stroke-linejoin:miter;stroke-opacity:1" id="path8580" d="M 75.612466,173.64974 138.37433,146.19963"/><path id="path936" style="opacity:1;fill:#000;fill-opacity:1;stroke:none;stroke-width:.898054;stroke-linecap:round;stroke-linejoin:round;stroke-opacity:1;paint-order:markers stroke fill" d="M 118.50195 78.773438 A 40.345138 40.345138 0 0 0 78.15625 119.11914 A 40.345138 40.345138 0 0 0 79.972656 130.99609 L 153.33984 98.779297 A 40.345138 40.345138 0 0 0 118.50195 78.773438 z" transform="matrix(0.26458333,0,0,0.26458333,75.546089,129.8161)"/><path style="opacity:1;fill:none;stroke:#000;stroke-width:3.71779;stroke-linecap:round;stroke-linejoin:miter;stroke-miterlimit:4;stroke-dasharray:none;stroke-opacity:1" id="path1269" d="M 106.88976,144.24271 V 132.0492"/><path style="opacity:1;fill:none;stroke:#000;stroke-width:3.71779;stroke-linecap:round;stroke-linejoin:miter;stroke-miterlimit:4;stroke-dasharray:none;stroke-opacity:1" id="path1269-6-3" d="m 86.162341,140.56791 8.62212,8.62211"/><path style="opacity:1;fill:none;stroke:#000;stroke-width:3.71779;stroke-linecap:round;stroke-linejoin:miter;stroke-miterlimit:4;stroke-dasharray:none;stroke-opacity:1" id="path1269-7-5" d="m 77.548811,161.30936 h 12.19352"/><path style="opacity:1;fill:none;stroke:#000;stroke-width:3.71779;stroke-linecap:round;stroke-linejoin:miter;stroke-miterlimit:4;stroke-dasharray:none;stroke-opacity:1" id="path1269-6-5" d="m 127.56669,140.56949 -8.62211,8.62212"/></g></svg>